<svg width="200" height="200" viewBox="0 0 200 200" fill="none" xmlns="http://www.w3.org/2000/svg">
<g filter="url(#filter0_d_252_167)">
<rect x="40" y="36" width="120" height="120" rx="8" fill="white"/>
<rect x="40.5" y="36.5" width="119" height="119" rx="7.5" stroke="#D9D9D9"/>
</g>
<path d="M69.6284 66.0072H130.74V125.452H69.6284V66.0072Z" fill="url(#paint0_radial_252_167)"/>
<path d="M69.6284 66.0072H130.74V125.452H69.6284V66.0072ZM66.8506 128.23H133.517V63.2295H66.8506V128.23ZM114.017 94.5628C115.434 94.5628 115.934 94.5628 116.073 94.5073C116.073 94.3129 116.128 94.1739 116.128 94.035C116.128 92.535 115.406 89.7573 112.517 89.7573C109.85 89.7573 108.712 92.0905 108.434 94.5628H114.017V94.5628ZM108.378 98.3683C108.434 102.118 110.212 104.646 114.434 104.646C116.073 104.646 117.489 104.424 118.962 103.785C119.156 103.702 119.295 103.73 119.295 103.98V107.452C119.295 107.73 119.212 107.869 119.017 108.007C117.545 108.729 115.712 109.063 113.434 109.063C106.101 109.063 103.351 103.646 103.351 97.6185C103.351 91.063 106.74 85.7019 112.712 85.7019C118.767 85.7019 120.879 90.7852 120.879 94.9241C120.879 96.2575 120.795 97.3408 120.656 97.8686C120.601 98.0908 120.518 98.1742 120.295 98.2298C119.74 98.3131 118.101 98.4241 115.656 98.4241H108.378V98.3683ZM93.4896 95.535C92.7119 92.4517 90.8229 85.7295 90.1284 82.4795H90.0729C89.4896 85.7295 87.9617 91.2294 86.8229 95.535H93.4896V95.535ZM85.6839 100.035L83.4895 108.341C83.434 108.563 83.3507 108.646 83.0728 108.646H78.9895C78.7117 108.646 78.6561 108.563 78.7117 108.23L86.6006 80.6462C86.7394 80.1462 86.8228 79.7573 86.8783 78.3685C86.8783 78.174 86.9616 78.0907 87.1005 78.0907H92.9338C93.1282 78.0907 93.2116 78.1463 93.2672 78.3685L102.1 108.285C102.156 108.507 102.1 108.646 101.878 108.646H97.295C97.0728 108.646 96.9339 108.563 96.8783 108.369L94.6005 100.035H85.6839V100.035Z" fill="#D8A1FF"/>
<defs>
<filter id="filter0_d_252_167" x="0" y="0" width="200" height="200" filterUnits="userSpaceOnUse" color-interpolation-filters="sRGB">
<feFlood flood-opacity="0" result="BackgroundImageFix"/>
<feColorMatrix in="SourceAlpha" type="matrix" values="0 0 0 0 0 0 0 0 0 0 0 0 0 0 0 0 0 0 127 0" result="hardAlpha"/>
<feOffset dy="4"/>
<feGaussianBlur stdDeviation="20"/>
<feComposite in2="hardAlpha" operator="out"/>
<feColorMatrix type="matrix" values="0 0 0 0 0.0367917 0 0 0 0 0.0348958 0 0 0 0 0.0484375 0 0 0 0.1 0"/>
<feBlend mode="normal" in2="BackgroundImageFix" result="effect1_dropShadow_252_167"/>
<feBlend mode="normal" in="SourceGraphic" in2="effect1_dropShadow_252_167" result="shape"/>
</filter>
<radialGradient id="paint0_radial_252_167" cx="0" cy="0" r="1" gradientUnits="userSpaceOnUse" gradientTransform="translate(89.7554 79.3288) scale(46.4444 44.9667)">
<stop stop-color="#442F55" stop-opacity="0.98"/>
<stop offset="1" stop-color="#12002C"/>
</radialGradient>
</defs>
</svg>
