<svg width="200" height="200" viewBox="0 0 200 200" fill="none" xmlns="http://www.w3.org/2000/svg">
<g filter="url(#filter0_d_252_162)">
<rect x="40" y="36" width="120" height="120" rx="8" fill="white"/>
<rect x="40.5" y="36.5" width="119" height="119" rx="7.5" stroke="#D9D9D9"/>
</g>
<path d="M66.5217 120.255C66.5217 125.014 70.3793 128.871 75.1376 128.871H124.726C129.485 128.871 133.342 125.013 133.342 120.255V70.6669C133.342 65.9078 129.484 62.0508 124.726 62.0508H75.1379C70.3788 62.0508 66.5217 65.9083 66.5217 70.6666V120.255V120.255Z" fill="#563D7C"/>
<path d="M94.2306 91.6077V82.1451H102.56C103.353 82.1451 104.118 82.2111 104.855 82.3434C105.591 82.4755 106.243 82.7115 106.81 83.0516C107.376 83.3917 107.83 83.8638 108.17 84.4681C108.51 85.0726 108.68 85.847 108.68 86.7911C108.68 88.4911 108.17 89.7189 107.15 90.4743C106.13 91.23 104.827 91.6077 103.24 91.6077H94.2306V91.6077ZM85.3344 75.2321V115.689H104.94C106.753 115.689 108.519 115.463 110.238 115.01C111.957 114.556 113.487 113.857 114.828 112.913C116.169 111.969 117.236 110.75 118.029 109.258C118.823 107.766 119.219 106 119.219 103.96C119.219 101.429 118.605 99.2666 117.378 97.4724C116.15 95.6779 114.289 94.4219 111.796 93.7041C113.609 92.8355 114.979 91.7209 115.904 90.361C116.83 89.0012 117.292 87.3014 117.292 85.2613C117.292 83.3726 116.981 81.7862 116.358 80.5017C115.734 79.2175 114.856 78.1881 113.723 77.4136C112.589 76.6392 111.23 76.0819 109.643 75.7421C108.056 75.402 106.3 75.2321 104.373 75.2321H85.3344V75.2321ZM94.2306 108.776V97.6705H103.92C105.846 97.6705 107.395 98.1142 108.566 99.0022C109.737 99.8899 110.323 101.373 110.323 103.45C110.323 104.508 110.144 105.377 109.785 106.057C109.426 106.737 108.944 107.275 108.34 107.672C107.735 108.068 107.036 108.352 106.243 108.522C105.45 108.691 104.619 108.776 103.75 108.776H94.2306V108.776Z" fill="white"/>
<defs>
<filter id="filter0_d_252_162" x="0" y="0" width="200" height="200" filterUnits="userSpaceOnUse" color-interpolation-filters="sRGB">
<feFlood flood-opacity="0" result="BackgroundImageFix"/>
<feColorMatrix in="SourceAlpha" type="matrix" values="0 0 0 0 0 0 0 0 0 0 0 0 0 0 0 0 0 0 127 0" result="hardAlpha"/>
<feOffset dy="4"/>
<feGaussianBlur stdDeviation="20"/>
<feComposite in2="hardAlpha" operator="out"/>
<feColorMatrix type="matrix" values="0 0 0 0 0.0367917 0 0 0 0 0.0348958 0 0 0 0 0.0484375 0 0 0 0.1 0"/>
<feBlend mode="normal" in2="BackgroundImageFix" result="effect1_dropShadow_252_162"/>
<feBlend mode="normal" in="SourceGraphic" in2="effect1_dropShadow_252_162" result="shape"/>
</filter>
</defs>
</svg>
