<svg width="282" height="100" viewBox="0 0 282 100" fill="none" xmlns="http://www.w3.org/2000/svg">
<path d="M31.0653 42.5H37.4524M48.9297 59.0349H56.1973M48.4999 38.3334L30.1667 38.3334C27.6667 38.3334 26.8333 39.8959 26.8334 41.4584L26.8334 60.2084C26.8333 62.5521 28.5 63.3334 30.1667 63.3334H56.8333C59.3332 63.3334 60.1666 61.7709 60.1666 60.2084L60.1667 49.2709M54.6412 48.3334L57.9745 45M54.6412 48.3334L51.3078 45M54.6412 48.3334V36.6667M47.7074 50.874C47.7074 53.1977 45.8237 55.0814 43.5 55.0814C41.1763 55.0814 39.2926 53.1977 39.2926 50.874C39.2926 48.5504 41.1763 46.6667 43.5 46.6667C45.8237 46.6667 47.7074 48.5504 47.7074 50.874Z" stroke="white" stroke-width="3" stroke-linecap="round" stroke-linejoin="round"/>
<path d="M75.314 50.436C75.314 47.988 75.878 45.792 77.006 43.848C78.158 41.904 79.706 40.392 81.65 39.312C83.618 38.208 85.766 37.656 88.094 37.656C90.758 37.656 93.122 38.316 95.186 39.636C97.274 40.932 98.786 42.78 99.722 45.18H94.79C94.142 43.86 93.242 42.876 92.09 42.228C90.938 41.58 89.606 41.256 88.094 41.256C86.438 41.256 84.962 41.628 83.666 42.372C82.37 43.116 81.35 44.184 80.606 45.576C79.886 46.968 79.526 48.588 79.526 50.436C79.526 52.284 79.886 53.904 80.606 55.296C81.35 56.688 82.37 57.768 83.666 58.536C84.962 59.28 86.438 59.652 88.094 59.652C89.606 59.652 90.938 59.328 92.09 58.68C93.242 58.032 94.142 57.048 94.79 55.728H99.722C98.786 58.128 97.274 59.976 95.186 61.272C93.122 62.568 90.758 63.216 88.094 63.216C85.742 63.216 83.594 62.676 81.65 61.596C79.706 60.492 78.158 58.968 77.006 57.024C75.878 55.08 75.314 52.884 75.314 50.436ZM108.93 36.36V63H104.826V36.36H108.93ZM116.706 40.536C115.962 40.536 115.338 40.284 114.834 39.78C114.33 39.276 114.078 38.652 114.078 37.908C114.078 37.164 114.33 36.54 114.834 36.036C115.338 35.532 115.962 35.28 116.706 35.28C117.426 35.28 118.038 35.532 118.542 36.036C119.046 36.54 119.298 37.164 119.298 37.908C119.298 38.652 119.046 39.276 118.542 39.78C118.038 40.284 117.426 40.536 116.706 40.536ZM118.722 43.164V63H114.618V43.164H118.722ZM123.042 53.064C123.042 51.024 123.45 49.236 124.266 47.7C125.106 46.14 126.258 44.94 127.722 44.1C129.186 43.26 130.866 42.84 132.762 42.84C135.162 42.84 137.142 43.416 138.702 44.568C140.286 45.696 141.354 47.316 141.906 49.428H137.478C137.118 48.444 136.542 47.676 135.75 47.124C134.958 46.572 133.962 46.296 132.762 46.296C131.082 46.296 129.738 46.896 128.73 48.096C127.746 49.272 127.254 50.928 127.254 53.064C127.254 55.2 127.746 56.868 128.73 58.068C129.738 59.268 131.082 59.868 132.762 59.868C135.138 59.868 136.71 58.824 137.478 56.736H141.906C141.33 58.752 140.25 60.36 138.666 61.56C137.082 62.736 135.114 63.324 132.762 63.324C130.866 63.324 129.186 62.904 127.722 62.064C126.258 61.2 125.106 60 124.266 58.464C123.45 56.904 123.042 55.104 123.042 53.064ZM154.144 53.1L163.288 63H157.744L150.4 54.468V63H146.296V36.36H150.4V51.84L157.6 43.164H163.288L154.144 53.1ZM196.161 37.98V63H192.057V52.056H180.285V63H176.181V37.98H180.285V48.708H192.057V37.98H196.161ZM220.044 52.596C220.044 53.34 219.996 54.012 219.9 54.612H204.744C204.864 56.196 205.452 57.468 206.508 58.428C207.564 59.388 208.86 59.868 210.396 59.868C212.604 59.868 214.164 58.944 215.076 57.096H219.504C218.904 58.92 217.812 60.42 216.228 61.596C214.668 62.748 212.724 63.324 210.396 63.324C208.5 63.324 206.796 62.904 205.284 62.064C203.796 61.2 202.62 60 201.756 58.464C200.916 56.904 200.496 55.104 200.496 53.064C200.496 51.024 200.904 49.236 201.72 47.7C202.56 46.14 203.724 44.94 205.212 44.1C206.724 43.26 208.452 42.84 210.396 42.84C212.268 42.84 213.936 43.248 215.4 44.064C216.864 44.88 218.004 46.032 218.82 47.52C219.636 48.984 220.044 50.676 220.044 52.596ZM215.76 51.3C215.736 49.788 215.196 48.576 214.14 47.664C213.084 46.752 211.776 46.296 210.216 46.296C208.8 46.296 207.588 46.752 206.58 47.664C205.572 48.552 204.972 49.764 204.78 51.3H215.76ZM228.487 46.044C229.087 45.036 229.879 44.256 230.863 43.704C231.871 43.128 233.059 42.84 234.427 42.84V47.088H233.383C231.775 47.088 230.551 47.496 229.711 48.312C228.895 49.128 228.487 50.544 228.487 52.56V63H224.383V43.164H228.487V46.044ZM256.679 52.596C256.679 53.34 256.631 54.012 256.535 54.612H241.379C241.499 56.196 242.087 57.468 243.143 58.428C244.199 59.388 245.495 59.868 247.031 59.868C249.239 59.868 250.799 58.944 251.711 57.096H256.139C255.539 58.92 254.447 60.42 252.863 61.596C251.303 62.748 249.359 63.324 247.031 63.324C245.135 63.324 243.431 62.904 241.919 62.064C240.431 61.2 239.255 60 238.391 58.464C237.551 56.904 237.131 55.104 237.131 53.064C237.131 51.024 237.539 49.236 238.355 47.7C239.195 46.14 240.359 44.94 241.847 44.1C243.359 43.26 245.087 42.84 247.031 42.84C248.903 42.84 250.571 43.248 252.035 44.064C253.499 44.88 254.639 46.032 255.455 47.52C256.271 48.984 256.679 50.676 256.679 52.596ZM252.395 51.3C252.371 49.788 251.831 48.576 250.775 47.664C249.719 46.752 248.411 46.296 246.851 46.296C245.435 46.296 244.223 46.752 243.215 47.664C242.207 48.552 241.607 49.764 241.415 51.3H252.395Z" fill="white"/>
<rect x="0.5" y="0.5" width="281" height="99" stroke="white"/>
</svg>
