<svg width="70" height="70" viewBox="0 0 70 70" fill="none" xmlns="http://www.w3.org/2000/svg">
<path d="M35.0096 28.1925C33.2455 28.1925 31.5935 28.8407 30.3427 30.0254C29.0978 31.2101 28.4075 32.7748 28.4075 34.4457C28.4075 36.1166 29.0978 37.6813 30.3427 38.866C31.5935 40.0451 33.2455 40.6989 35.0096 40.6989C36.7737 40.6989 38.4257 40.0451 39.6765 38.866C40.9214 37.6813 41.6117 36.1166 41.6117 34.4457C41.6117 32.7748 40.9214 31.2101 39.6765 30.0254C39.0656 29.4423 38.3384 28.98 37.5373 28.6654C36.7361 28.3507 35.8769 28.19 35.0096 28.1925ZM59.3353 41.3528L55.4767 38.2289C55.6596 37.1672 55.754 36.0831 55.754 35.0045C55.754 33.926 55.6596 32.8363 55.4767 31.7801L59.3353 28.6563C59.6268 28.42 59.8354 28.1052 59.9334 27.7538C60.0315 27.4024 60.0142 27.0311 59.884 26.6892L59.8309 26.544C58.769 23.7313 57.1778 21.1242 55.1345 18.849L55.0283 18.7316C54.7802 18.4553 54.4495 18.2566 54.0798 18.1619C53.7101 18.0671 53.3188 18.0807 52.9574 18.2007L48.1666 19.8157C46.3966 18.441 44.426 17.3569 42.2902 16.6025L41.3639 11.8581C41.294 11.5007 41.111 11.1719 40.8391 10.9153C40.5672 10.6588 40.2193 10.4867 39.8417 10.4219L39.6824 10.394C36.6144 9.86868 33.3812 9.86868 30.3132 10.394L30.1539 10.4219C29.7763 10.4867 29.4284 10.6588 29.1565 10.9153C28.8846 11.1719 28.7016 11.5007 28.6317 11.8581L27.6995 16.6248C25.5839 17.3853 23.6131 18.4668 21.8644 19.8269L17.0382 18.2007C16.6769 18.0797 16.2853 18.0657 15.9154 18.1605C15.5455 18.2553 15.2148 18.4545 14.9673 18.7316L14.8611 18.849C12.8214 21.1267 11.2306 23.7331 10.1647 26.544L10.1116 26.6892C9.84608 27.3878 10.0644 28.1701 10.6603 28.6563L14.5661 31.8137C14.3832 32.8642 14.2947 33.9372 14.2947 34.9989C14.2947 36.0719 14.3832 37.1448 14.5661 38.1842L10.6721 41.3416C10.3806 41.5779 10.172 41.8927 10.074 42.2441C9.97594 42.5955 9.99318 42.9668 10.1234 43.3086L10.1765 43.4539C11.2444 46.2648 12.8197 48.8633 14.8729 51.1489L14.9791 51.2663C15.2272 51.5426 15.5579 51.7412 15.9276 51.836C16.2973 51.9308 16.6886 51.9172 17.05 51.7972L21.8762 50.171C23.6344 51.5401 25.5932 52.6242 27.7113 53.373L28.6435 58.1398C28.7134 58.4972 28.8964 58.826 29.1683 59.0825C29.4402 59.3391 29.7881 59.5112 30.1657 59.576L30.325 59.6039C33.4232 60.132 36.596 60.132 39.6942 59.6039L39.8535 59.576C40.2311 59.5112 40.579 59.3391 40.8509 59.0825C41.1228 58.826 41.3058 58.4972 41.3757 58.1398L42.302 53.3954C44.4378 52.6354 46.4084 51.5569 48.1784 50.1822L52.9692 51.7972C53.3305 51.9182 53.7221 51.9322 54.092 51.8374C54.4619 51.7426 54.7926 51.5434 55.0401 51.2663L55.1463 51.1489C57.1995 48.8522 58.7748 46.2648 59.8427 43.4539L59.8958 43.3086C60.1495 42.6157 59.9312 41.8389 59.3353 41.3528ZM35.0096 44.2698C29.2807 44.2698 24.6374 39.8719 24.6374 34.4457C24.6374 29.0195 29.2807 24.6216 35.0096 24.6216C40.7385 24.6216 45.3818 29.0195 45.3818 34.4457C45.3818 39.8719 40.7385 44.2698 35.0096 44.2698Z" fill="white"/>
<rect x="1" y="1" width="68" height="68" stroke="white" stroke-width="2"/>
</svg>
