<svg width="200" height="200" viewBox="0 0 200 200" fill="none" xmlns="http://www.w3.org/2000/svg">
<g filter="url(#filter0_d_252_164)">
<rect x="40" y="36" width="120" height="120" rx="8" fill="white"/>
<rect x="40.5" y="36.5" width="119" height="119" rx="7.5" stroke="#D9D9D9"/>
</g>
<path d="M131.737 92.5153L102.484 63.2635C100.8 61.5788 98.0677 61.5788 96.3819 63.2635L90.3074 69.3381L98.0132 77.0441C99.8039 76.439 101.857 76.8449 103.285 78.2723C104.719 79.7089 105.122 81.78 104.502 83.5764L111.929 91.0031C113.725 90.3841 115.798 90.7846 117.233 92.2219C119.239 94.2267 119.239 97.476 117.233 99.4822C115.227 101.489 111.978 101.489 109.971 99.4822C108.462 97.972 108.09 95.7565 108.853 93.898L101.928 86.9723L101.927 105.198C102.429 105.446 102.888 105.774 103.285 106.169C105.29 108.174 105.29 111.423 103.285 113.431C101.279 115.436 98.0279 115.436 96.0247 113.431C94.0191 111.423 94.0191 108.174 96.0247 106.169C96.5053 105.688 97.0765 105.308 97.7052 105.049V86.6533C97.0756 86.3962 96.5041 86.0152 96.0247 85.5328C94.5052 84.0153 94.1398 81.7857 94.9184 79.9199L87.3223 72.3228L67.2641 92.38C65.5786 94.0663 65.5786 96.799 67.2641 98.4839L96.5175 127.736C98.2017 129.421 100.934 129.421 102.62 127.736L131.736 98.6198C133.421 96.9343 133.421 94.2001 131.736 92.5153" fill="#DE4C36"/>
<defs>
<filter id="filter0_d_252_164" x="0" y="0" width="200" height="200" filterUnits="userSpaceOnUse" color-interpolation-filters="sRGB">
<feFlood flood-opacity="0" result="BackgroundImageFix"/>
<feColorMatrix in="SourceAlpha" type="matrix" values="0 0 0 0 0 0 0 0 0 0 0 0 0 0 0 0 0 0 127 0" result="hardAlpha"/>
<feOffset dy="4"/>
<feGaussianBlur stdDeviation="20"/>
<feComposite in2="hardAlpha" operator="out"/>
<feColorMatrix type="matrix" values="0 0 0 0 0.0367917 0 0 0 0 0.0348958 0 0 0 0 0.0484375 0 0 0 0.1 0"/>
<feBlend mode="normal" in2="BackgroundImageFix" result="effect1_dropShadow_252_164"/>
<feBlend mode="normal" in="SourceGraphic" in2="effect1_dropShadow_252_164" result="shape"/>
</filter>
</defs>
</svg>
