<svg width="90" height="90" viewBox="0 0 90 90" fill="none" xmlns="http://www.w3.org/2000/svg">
<path fill-rule="evenodd" clip-rule="evenodd" d="M44.8317 20.6888C30.8559 20.6888 19.536 31.9637 19.536 45.884C19.536 57.0328 26.7769 66.4495 36.832 69.7878C38.0968 70.0083 38.571 69.2524 38.571 68.5911C38.571 67.9927 38.5394 66.0086 38.5394 63.8985C32.1839 65.0638 30.5397 62.3553 30.0337 60.9381C29.7492 60.2137 28.516 57.9776 27.4409 57.3792C26.5556 56.9068 25.2908 55.7416 27.4093 55.7101C29.4013 55.6786 30.8242 57.5367 31.2985 58.2926C33.5751 62.1033 37.2114 61.0325 38.6659 60.3712C38.8872 58.7335 39.5513 57.6312 40.2785 57.0013C34.6502 56.3714 28.769 54.1984 28.769 44.5612C28.769 41.8213 29.7492 39.5537 31.3618 37.79C31.1088 37.1602 30.2235 34.5777 31.6147 31.1133C31.6147 31.1133 33.7332 30.452 38.571 33.6958C40.5947 33.1289 42.7448 32.8455 44.895 32.8455C47.0451 32.8455 49.1953 33.1289 51.2189 33.6958C56.0567 30.4205 58.1752 31.1133 58.1752 31.1133C59.5665 34.5777 58.6812 37.1602 58.4282 37.79C60.0408 39.5537 61.021 41.7898 61.021 44.5612C61.021 54.2299 55.1081 56.3714 49.4798 57.0013C50.3968 57.7887 51.1873 59.3004 51.1873 61.6624C51.1873 65.0323 51.1557 67.7407 51.1557 68.5911C51.1557 69.2524 51.63 70.0398 52.8948 69.7878C62.8866 66.4495 70.1275 57.0013 70.1275 45.884C70.1275 31.9637 58.8076 20.6888 44.8317 20.6888Z" fill="white"/>
</svg>
