<svg width="200" height="200" viewBox="0 0 200 200" fill="none" xmlns="http://www.w3.org/2000/svg">
<g filter="url(#filter0_d_252_165)">
<rect x="40" y="36" width="120" height="120" rx="8" fill="white"/>
<rect x="40.5" y="36.5" width="119" height="119" rx="7.5" stroke="#D9D9D9"/>
</g>
<path d="M99.6279 62.9048C81.1584 62.9048 66.1816 77.879 66.1816 96.3511C66.1816 111.129 75.7649 123.666 89.0543 128.088C90.7257 128.398 91.3396 127.363 91.3396 126.479C91.3396 125.682 91.3083 123.047 91.2942 120.252C81.9891 122.276 80.0257 116.306 80.0257 116.306C78.5043 112.44 76.3121 111.412 76.3121 111.412C73.2777 109.336 76.5409 109.379 76.5409 109.379C79.8995 109.615 81.6681 112.826 81.6681 112.826C84.6511 117.939 89.4923 116.461 91.4009 115.606C91.701 113.444 92.568 111.969 93.5244 111.134C86.0956 110.288 78.286 107.42 78.286 94.6043C78.286 90.9529 79.5926 87.9691 81.7323 85.6269C81.385 84.7844 80.2403 81.3827 82.0563 76.7757C82.0563 76.7757 84.8649 75.8767 91.2564 80.2041C93.9241 79.4628 96.7855 79.0914 99.6279 79.0788C102.47 79.0914 105.334 79.4628 108.007 80.2041C114.391 75.8767 117.195 76.7757 117.195 76.7757C119.016 81.3827 117.87 84.7844 117.523 85.6269C119.668 87.9691 120.965 90.9527 120.965 94.6043C120.965 107.45 113.141 110.279 105.693 111.107C106.893 112.145 107.962 114.181 107.962 117.301C107.962 121.776 107.923 125.378 107.923 126.479C107.923 127.369 108.525 128.412 110.221 128.084C123.503 123.656 133.074 111.124 133.074 96.3511C133.074 77.879 118.099 62.9048 99.6279 62.9048Z" fill="#161614"/>
<path d="M78.7083 110.549C78.6349 110.716 78.3731 110.765 78.1352 110.651C77.8925 110.542 77.7561 110.316 77.8348 110.149C77.9069 109.978 78.1687 109.93 78.4109 110.045C78.654 110.154 78.7925 110.383 78.7083 110.549ZM80.3536 112.017C80.1941 112.165 79.8822 112.097 79.6705 111.863C79.4517 111.63 79.4108 111.318 79.5726 111.168C79.7371 111.02 80.0396 111.089 80.2589 111.322C80.4776 111.558 80.5201 111.868 80.3533 112.018L80.3536 112.017ZM81.4823 113.896C81.2772 114.038 80.9419 113.904 80.735 113.607C80.5301 113.31 80.5301 112.953 80.7394 112.81C80.9472 112.667 81.2772 112.796 81.487 113.091C81.6916 113.393 81.6916 113.75 81.482 113.896L81.4823 113.896ZM83.3909 116.071C83.2075 116.273 82.8172 116.219 82.5313 115.943C82.2391 115.673 82.1575 115.291 82.3414 115.088C82.5268 114.886 82.9195 114.943 83.2075 115.216C83.4979 115.485 83.5866 115.871 83.3912 116.071H83.3909ZM85.8577 116.805C85.7772 117.067 85.401 117.186 85.0222 117.075C84.644 116.96 84.3963 116.654 84.4727 116.389C84.5514 116.125 84.9291 116.001 85.3108 116.12C85.6885 116.234 85.9366 116.539 85.858 116.805H85.8577ZM88.6655 117.117C88.6749 117.393 88.3536 117.621 87.9559 117.626C87.5559 117.635 87.2325 117.412 87.2283 117.141C87.2283 116.862 87.5423 116.635 87.942 116.629C88.3397 116.621 88.6655 116.843 88.6655 117.117ZM91.4235 117.011C91.4712 117.28 91.1947 117.557 90.8 117.63C90.4117 117.701 90.0524 117.535 90.0028 117.268C89.9545 116.992 90.2362 116.716 90.6237 116.644C91.0192 116.576 91.3731 116.737 91.4235 117.011Z" fill="#161614"/>
<defs>
<filter id="filter0_d_252_165" x="0" y="0" width="200" height="200" filterUnits="userSpaceOnUse" color-interpolation-filters="sRGB">
<feFlood flood-opacity="0" result="BackgroundImageFix"/>
<feColorMatrix in="SourceAlpha" type="matrix" values="0 0 0 0 0 0 0 0 0 0 0 0 0 0 0 0 0 0 127 0" result="hardAlpha"/>
<feOffset dy="4"/>
<feGaussianBlur stdDeviation="20"/>
<feComposite in2="hardAlpha" operator="out"/>
<feColorMatrix type="matrix" values="0 0 0 0 0.0367917 0 0 0 0 0.0348958 0 0 0 0 0.0484375 0 0 0 0.1 0"/>
<feBlend mode="normal" in2="BackgroundImageFix" result="effect1_dropShadow_252_165"/>
<feBlend mode="normal" in="SourceGraphic" in2="effect1_dropShadow_252_165" result="shape"/>
</filter>
</defs>
</svg>
