<svg width="90" height="90" viewBox="0 0 90 90" fill="none" xmlns="http://www.w3.org/2000/svg">
<path d="M22.5584 65.0556H30.8964V44.8062L18.985 35.8726V61.4822C18.985 63.4595 20.5871 65.0556 22.5584 65.0556Z" fill="white"/>
<path d="M59.4839 65.0556H67.822C69.7993 65.0556 71.3954 63.4535 71.3954 61.4822V35.8726L59.4839 44.8062" fill="white"/>
<path d="M59.4839 29.3215V44.8064L71.3954 35.8728V31.1082C71.3954 26.6891 66.3509 24.1698 62.8192 26.8201" fill="white"/>
<path d="M30.8965 44.8062V29.3213L45.1902 40.0416L59.484 29.3213V44.8062L45.1902 55.5265" fill="white"/>
<path d="M18.985 31.1082V35.8728L30.8964 44.8064V29.3215L27.5612 26.8201C24.0235 24.1698 18.985 26.6891 18.985 31.1082Z" fill="white"/>
</svg>
