<svg width="200" height="200" viewBox="0 0 200 200" fill="none" xmlns="http://www.w3.org/2000/svg">
<g filter="url(#filter0_d_249_579)">
<rect x="40" y="36" width="120" height="120" rx="8" fill="white"/>
<rect x="40.5" y="36.5" width="119" height="119" rx="7.5" stroke="#D9D9D9"/>
</g>
<path d="M75.9521 122.689L70.6045 62.6666H129.396L124.048 122.657L99.9514 129.333" fill="#E44D26"/>
<path d="M99.9998 124.229V67.5933H124.032L119.446 118.801" fill="#F16529"/>
<path d="M81.5265 74.9338H100V82.2908H89.5965L90.2771 89.8261H100V97.1669H83.5359L81.5265 74.9338ZM83.86 100.862H91.2494L91.768 106.744L100 108.948V116.629L84.8971 112.416" fill="#EBEBEB"/>
<path d="M118.408 74.9338H99.9673V82.2908H117.728L118.408 74.9338ZM117.063 89.8261H99.9673V97.1831H109.042L108.183 106.744L99.9673 108.948V116.596L115.038 112.416" fill="white"/>
<defs>
<filter id="filter0_d_249_579" x="0" y="0" width="200" height="200" filterUnits="userSpaceOnUse" color-interpolation-filters="sRGB">
<feFlood flood-opacity="0" result="BackgroundImageFix"/>
<feColorMatrix in="SourceAlpha" type="matrix" values="0 0 0 0 0 0 0 0 0 0 0 0 0 0 0 0 0 0 127 0" result="hardAlpha"/>
<feOffset dy="4"/>
<feGaussianBlur stdDeviation="20"/>
<feComposite in2="hardAlpha" operator="out"/>
<feColorMatrix type="matrix" values="0 0 0 0 0.0367917 0 0 0 0 0.0348958 0 0 0 0 0.0484375 0 0 0 0.1 0"/>
<feBlend mode="normal" in2="BackgroundImageFix" result="effect1_dropShadow_249_579"/>
<feBlend mode="normal" in="SourceGraphic" in2="effect1_dropShadow_249_579" result="shape"/>
</filter>
</defs>
</svg>
