<svg width="90" height="90" viewBox="0 0 90 90" fill="none" xmlns="http://www.w3.org/2000/svg">
<path d="M37.5104 45.1153C37.5104 40.9697 40.8692 37.6081 45.0137 37.6081C49.1581 37.6081 52.5188 40.9697 52.5188 45.1153C52.5188 49.261 49.1581 52.6226 45.0137 52.6226C40.8692 52.6226 37.5104 49.261 37.5104 45.1153ZM33.4533 45.1153C33.4533 51.502 38.6289 56.6791 45.0137 56.6791C51.3985 56.6791 56.5741 51.502 56.5741 45.1153C56.5741 38.7287 51.3985 33.5516 45.0137 33.5516C38.6289 33.5516 33.4533 38.7287 33.4533 45.1153ZM54.3301 33.0931C54.3299 33.6276 54.4882 34.1501 54.7848 34.5946C55.0815 35.0392 55.5033 35.3857 55.9969 35.5904C56.4905 35.7952 57.0336 35.8489 57.5577 35.7448C58.0819 35.6408 58.5633 35.3836 58.9413 35.0058C59.3193 34.628 59.5768 34.1466 59.6812 33.6224C59.7857 33.0983 59.7324 32.5549 59.5281 32.061C59.3238 31.5671 58.9777 31.1449 58.5336 30.8478C58.0894 30.5507 57.5672 30.392 57.0328 30.3918H57.0317C56.3155 30.3921 55.6287 30.6768 55.1222 31.1833C54.6156 31.6898 54.3307 32.3766 54.3301 33.0931ZM35.9182 63.4461C33.7233 63.3461 32.5302 62.9804 31.7374 62.6714C30.6863 62.2621 29.9363 61.7746 29.1478 60.9869C28.3593 60.1992 27.8712 59.4498 27.4638 58.3984C27.1547 57.6057 26.7891 56.4119 26.6893 54.2163C26.5802 51.8425 26.5584 51.1294 26.5584 45.1155C26.5584 39.1016 26.582 38.3905 26.6893 36.0147C26.7893 33.8191 27.1576 32.6277 27.4638 31.8327C27.873 30.7813 28.3604 30.0311 29.1478 29.2423C29.9352 28.4536 30.6845 27.9654 31.7374 27.5578C32.5299 27.2487 33.7233 26.883 35.9182 26.7832C38.2913 26.674 39.0042 26.6522 45.0137 26.6522C51.0232 26.6522 51.7368 26.6758 54.1118 26.7832C56.3068 26.8831 57.4979 27.2516 58.2927 27.5578C59.3438 27.9654 60.0938 28.4547 60.8823 29.2423C61.6708 30.03 62.1571 30.7813 62.5663 31.8327C62.8754 32.6254 63.241 33.8191 63.3408 36.0147C63.4499 38.3905 63.4717 39.1016 63.4717 45.1155C63.4717 51.1294 63.4499 51.8405 63.3408 54.2163C63.2408 56.4119 62.8734 57.6053 62.5663 58.3984C62.1571 59.4498 61.6697 60.2 60.8823 60.9869C60.0948 61.7738 59.3438 62.2621 58.2927 62.6714C57.5002 62.9805 56.3068 63.3463 54.1118 63.4461C51.7387 63.5553 51.0259 63.5771 45.0137 63.5771C39.0015 63.5771 38.2906 63.5553 35.9182 63.4461ZM35.7318 22.7317C33.3351 22.8409 31.6974 23.221 30.2672 23.7777C28.786 24.3526 27.532 25.1239 26.279 26.3753C25.026 27.6267 24.257 28.8829 23.6822 30.3646C23.1257 31.7961 22.7457 33.4334 22.6365 35.8308C22.5256 38.232 22.5002 38.9996 22.5002 45.1153C22.5002 51.2311 22.5256 51.9987 22.6365 54.3999C22.7457 56.7975 23.1257 58.4346 23.6822 59.8661C24.257 61.3469 25.0262 62.6045 26.279 63.8554C27.5319 65.1063 28.786 65.8764 30.2672 66.453C31.7001 67.0096 33.3351 67.3898 35.7318 67.499C38.1336 67.6081 38.8997 67.6353 45.0137 67.6353C51.1276 67.6353 51.8951 67.6099 54.2955 67.499C56.6924 67.3898 58.3291 67.0096 59.7602 66.453C61.2405 65.8764 62.4953 65.1068 63.7483 63.8554C65.0013 62.604 65.7688 61.3469 66.3451 59.8661C66.9017 58.4346 67.2835 56.7973 67.3908 54.3999C67.5 51.9969 67.5254 51.2311 67.5254 45.1153C67.5254 38.9996 67.5 38.232 67.3908 35.8308C67.2817 33.4332 66.9017 31.7952 66.3451 30.3646C65.7688 28.8838 64.9994 27.6286 63.7483 26.3753C62.4973 25.1219 61.2405 24.3526 59.762 23.7777C58.3291 23.221 56.6922 22.8391 54.2973 22.7317C51.8969 22.6225 51.1294 22.5953 45.0155 22.5953C38.9015 22.5953 38.1336 22.6207 35.7318 22.7317Z" fill="white"/>
</svg>
