<svg width="339" height="88" viewBox="0 0 339 88" fill="none" xmlns="http://www.w3.org/2000/svg">
<path d="M27 43.5H39M39 43.5H51M39 43.5V56M39 43.5V31" stroke="white" stroke-width="3" stroke-linecap="round" stroke-linejoin="round"/>
<path d="M97.4075 31.98V57H93.3035V39.864L85.6715 57H82.8275L75.1595 39.864V57H71.0555V31.98H75.4835L84.2675 51.6L93.0155 31.98H97.4075ZM111.706 57.324C109.834 57.324 108.142 56.904 106.63 56.064C105.118 55.2 103.93 54 103.066 52.464C102.202 50.904 101.77 49.104 101.77 47.064C101.77 45.048 102.214 43.26 103.102 41.7C103.99 40.14 105.202 38.94 106.738 38.1C108.274 37.26 109.99 36.84 111.886 36.84C113.782 36.84 115.498 37.26 117.034 38.1C118.57 38.94 119.782 40.14 120.67 41.7C121.558 43.26 122.002 45.048 122.002 47.064C122.002 49.08 121.546 50.868 120.634 52.428C119.722 53.988 118.474 55.2 116.89 56.064C115.33 56.904 113.602 57.324 111.706 57.324ZM111.706 53.76C112.762 53.76 113.746 53.508 114.658 53.004C115.594 52.5 116.35 51.744 116.926 50.736C117.502 49.728 117.79 48.504 117.79 47.064C117.79 45.624 117.514 44.412 116.962 43.428C116.41 42.42 115.678 41.664 114.766 41.16C113.854 40.656 112.87 40.404 111.814 40.404C110.758 40.404 109.774 40.656 108.862 41.16C107.974 41.664 107.266 42.42 106.738 43.428C106.21 44.412 105.946 45.624 105.946 47.064C105.946 49.2 106.486 50.856 107.566 52.032C108.67 53.184 110.05 53.76 111.706 53.76ZM130.463 40.044C131.063 39.036 131.855 38.256 132.839 37.704C133.847 37.128 135.035 36.84 136.403 36.84V41.088H135.359C133.751 41.088 132.527 41.496 131.687 42.312C130.871 43.128 130.463 44.544 130.463 46.56V57H126.359V37.164H130.463V40.044ZM158.655 46.596C158.655 47.34 158.607 48.012 158.511 48.612H143.355C143.475 50.196 144.063 51.468 145.119 52.428C146.175 53.388 147.471 53.868 149.007 53.868C151.215 53.868 152.775 52.944 153.687 51.096H158.115C157.515 52.92 156.423 54.42 154.839 55.596C153.279 56.748 151.335 57.324 149.007 57.324C147.111 57.324 145.407 56.904 143.895 56.064C142.407 55.2 141.231 54 140.367 52.464C139.527 50.904 139.107 49.104 139.107 47.064C139.107 45.024 139.515 43.236 140.331 41.7C141.171 40.14 142.335 38.94 143.823 38.1C145.335 37.26 147.063 36.84 149.007 36.84C150.879 36.84 152.547 37.248 154.011 38.064C155.475 38.88 156.615 40.032 157.431 41.52C158.247 42.984 158.655 44.676 158.655 46.596ZM154.371 45.3C154.347 43.788 153.807 42.576 152.751 41.664C151.695 40.752 150.387 40.296 148.827 40.296C147.411 40.296 146.199 40.752 145.191 41.664C144.183 42.552 143.583 43.764 143.391 45.3H154.371ZM185.641 57L179.881 46.992H176.749V57H172.645V31.98H181.285C183.205 31.98 184.825 32.316 186.145 32.988C187.489 33.66 188.485 34.56 189.133 35.688C189.805 36.816 190.141 38.076 190.141 39.468C190.141 41.1 189.661 42.588 188.701 43.932C187.765 45.252 186.313 46.152 184.345 46.632L190.537 57H185.641ZM176.749 43.716H181.285C182.821 43.716 183.973 43.332 184.741 42.564C185.533 41.796 185.929 40.764 185.929 39.468C185.929 38.172 185.545 37.164 184.777 36.444C184.009 35.7 182.845 35.328 181.285 35.328H176.749V43.716ZM213.871 46.596C213.871 47.34 213.823 48.012 213.727 48.612H198.571C198.691 50.196 199.279 51.468 200.335 52.428C201.391 53.388 202.687 53.868 204.223 53.868C206.431 53.868 207.991 52.944 208.903 51.096H213.331C212.731 52.92 211.639 54.42 210.055 55.596C208.495 56.748 206.551 57.324 204.223 57.324C202.327 57.324 200.623 56.904 199.111 56.064C197.623 55.2 196.447 54 195.583 52.464C194.743 50.904 194.323 49.104 194.323 47.064C194.323 45.024 194.731 43.236 195.547 41.7C196.387 40.14 197.551 38.94 199.039 38.1C200.551 37.26 202.279 36.84 204.223 36.84C206.095 36.84 207.763 37.248 209.227 38.064C210.691 38.88 211.831 40.032 212.647 41.52C213.463 42.984 213.871 44.676 213.871 46.596ZM209.587 45.3C209.563 43.788 209.023 42.576 207.967 41.664C206.911 40.752 205.603 40.296 204.043 40.296C202.627 40.296 201.415 40.752 200.407 41.664C199.399 42.552 198.799 43.764 198.607 45.3H209.587ZM225.41 57.324C223.85 57.324 222.446 57.048 221.198 56.496C219.974 55.92 219.002 55.152 218.282 54.192C217.562 53.208 217.178 52.116 217.13 50.916H221.378C221.45 51.756 221.846 52.464 222.566 53.04C223.31 53.592 224.234 53.868 225.338 53.868C226.49 53.868 227.378 53.652 228.002 53.22C228.65 52.764 228.974 52.188 228.974 51.492C228.974 50.748 228.614 50.196 227.894 49.836C227.198 49.476 226.082 49.08 224.546 48.648C223.058 48.24 221.846 47.844 220.91 47.46C219.974 47.076 219.158 46.488 218.462 45.696C217.79 44.904 217.454 43.86 217.454 42.564C217.454 41.508 217.766 40.548 218.39 39.684C219.014 38.796 219.902 38.1 221.054 37.596C222.23 37.092 223.574 36.84 225.086 36.84C227.342 36.84 229.154 37.416 230.522 38.568C231.914 39.696 232.658 41.244 232.754 43.212H228.65C228.578 42.324 228.218 41.616 227.57 41.088C226.922 40.56 226.046 40.296 224.942 40.296C223.862 40.296 223.034 40.5 222.458 40.908C221.882 41.316 221.594 41.856 221.594 42.528C221.594 43.056 221.786 43.5 222.17 43.86C222.554 44.22 223.022 44.508 223.574 44.724C224.126 44.916 224.942 45.168 226.022 45.48C227.462 45.864 228.638 46.26 229.55 46.668C230.486 47.052 231.29 47.628 231.962 48.396C232.634 49.164 232.982 50.184 233.006 51.456C233.006 52.584 232.694 53.592 232.07 54.48C231.446 55.368 230.558 56.064 229.406 56.568C228.278 57.072 226.946 57.324 225.41 57.324ZM255.705 37.164V57H251.601V54.66C250.953 55.476 250.101 56.124 249.045 56.604C248.013 57.06 246.909 57.288 245.733 57.288C244.173 57.288 242.769 56.964 241.521 56.316C240.297 55.668 239.325 54.708 238.605 53.436C237.909 52.164 237.561 50.628 237.561 48.828V37.164H241.629V48.216C241.629 49.992 242.073 51.36 242.961 52.32C243.849 53.256 245.061 53.724 246.597 53.724C248.133 53.724 249.345 53.256 250.233 52.32C251.145 51.36 251.601 49.992 251.601 48.216V37.164H255.705ZM285.432 36.84C286.992 36.84 288.384 37.164 289.608 37.812C290.856 38.46 291.828 39.42 292.524 40.692C293.244 41.964 293.604 43.5 293.604 45.3V57H289.536V45.912C289.536 44.136 289.092 42.78 288.204 41.844C287.316 40.884 286.104 40.404 284.568 40.404C283.032 40.404 281.808 40.884 280.896 41.844C280.008 42.78 279.564 44.136 279.564 45.912V57H275.496V45.912C275.496 44.136 275.052 42.78 274.164 41.844C273.276 40.884 272.064 40.404 270.528 40.404C268.992 40.404 267.768 40.884 266.856 41.844C265.968 42.78 265.524 44.136 265.524 45.912V57H261.42V37.164H265.524V39.432C266.196 38.616 267.048 37.98 268.08 37.524C269.112 37.068 270.216 36.84 271.392 36.84C272.976 36.84 274.392 37.176 275.64 37.848C276.888 38.52 277.848 39.492 278.52 40.764C279.12 39.564 280.056 38.616 281.328 37.92C282.6 37.2 283.968 36.84 285.432 36.84ZM317.306 46.596C317.306 47.34 317.258 48.012 317.162 48.612H302.006C302.126 50.196 302.714 51.468 303.77 52.428C304.826 53.388 306.122 53.868 307.658 53.868C309.866 53.868 311.426 52.944 312.338 51.096H316.766C316.166 52.92 315.074 54.42 313.49 55.596C311.93 56.748 309.986 57.324 307.658 57.324C305.762 57.324 304.058 56.904 302.546 56.064C301.058 55.2 299.882 54 299.018 52.464C298.178 50.904 297.758 49.104 297.758 47.064C297.758 45.024 298.166 43.236 298.982 41.7C299.822 40.14 300.986 38.94 302.474 38.1C303.986 37.26 305.714 36.84 307.658 36.84C309.53 36.84 311.198 37.248 312.662 38.064C314.126 38.88 315.266 40.032 316.082 41.52C316.898 42.984 317.306 44.676 317.306 46.596ZM313.022 45.3C312.998 43.788 312.458 42.576 311.402 41.664C310.346 40.752 309.038 40.296 307.478 40.296C306.062 40.296 304.85 40.752 303.842 41.664C302.834 42.552 302.234 43.764 302.042 45.3H313.022Z" fill="white"/>
<rect x="1" y="1" width="337" height="86" stroke="white" stroke-width="2"/>
</svg>
