<svg width="200" height="200" viewBox="0 0 200 200" fill="none" xmlns="http://www.w3.org/2000/svg">
<g filter="url(#filter0_d_252_171)">
<rect x="40" y="36" width="120" height="120" rx="8" fill="white"/>
<rect x="40.5" y="36.5" width="119" height="119" rx="7.5" stroke="#D9D9D9"/>
</g>
<path d="M126.147 75.6287C122.131 70.4281 116.663 66.5353 110.435 64.4427C104.206 62.35 97.4966 62.1515 91.1551 63.8722C84.8136 65.5929 79.1248 69.1555 74.8082 74.1095C70.4917 79.0635 67.7411 85.1863 66.9045 91.7036C66.0679 98.2209 67.1829 104.84 70.1083 110.724C73.0337 116.607 77.6383 121.491 83.3396 124.758C89.0408 128.024 95.5828 129.527 102.138 129.075C108.693 128.623 114.967 126.238 120.167 122.22C134.68 111.004 137.358 90.147 126.146 75.6287H126.147Z" fill="#FF6C37"/>
<path d="M111.059 83.8799L97.0516 97.9986L93.0932 93.9291C106.88 80.1426 108.263 81.3884 111.06 83.8799H111.059Z" fill="white"/>
<path d="M97.0515 98.3846C96.9275 98.3815 96.809 98.3323 96.7193 98.2465L92.7329 94.2601C92.6432 94.1672 92.593 94.043 92.593 93.9139C92.593 93.7847 92.6432 93.6605 92.7329 93.5676C106.325 79.9753 108.18 80.6117 111.391 83.5185C111.445 83.5615 111.488 83.6165 111.517 83.679C111.546 83.7415 111.56 83.8099 111.557 83.8787C111.578 84.0137 111.526 84.1517 111.419 84.239L97.4118 98.2475C97.3136 98.3376 97.1848 98.387 97.0515 98.3856V98.3846ZM93.7845 93.9279L97.0515 97.1949L110.34 83.9067C109.881 83.3318 109.226 82.9461 108.501 82.8235C107.776 82.701 107.031 82.8501 106.408 83.2423C104 84.322 100.124 87.616 93.7845 93.9279V93.9279Z" fill="#FF6C37"/>
<path d="M101.066 101.902L97.2456 97.9985L111.253 84.1561C115.019 87.8384 109.426 93.9841 101.066 101.901V101.902Z" fill="white"/>
<path d="M101.066 102.4C100.944 102.39 100.827 102.342 100.734 102.262L96.8305 98.4417C96.7719 98.2997 96.7719 98.1404 96.8305 97.9984C96.789 97.8819 96.789 97.7547 96.8305 97.6382L110.838 83.6306C110.935 83.5391 111.064 83.4882 111.198 83.4882C111.331 83.4882 111.46 83.5391 111.557 83.6306C112.011 84.0482 112.369 84.5585 112.608 85.1269C112.847 85.6953 112.961 86.3084 112.941 86.9246C112.941 90.6619 108.678 95.3678 101.425 102.234C101.328 102.33 101.201 102.389 101.065 102.4H101.066ZM97.9652 97.9984L101.093 101.125C106.629 95.8931 111.918 90.4948 111.945 86.8406C111.975 86.0659 111.719 85.3072 111.225 84.7093L97.9652 97.9984Z" fill="#FF6C37"/>
<path d="M93.2032 94.0122L95.9719 96.7809C95.9896 96.7965 96.0037 96.8156 96.0134 96.8371C96.0231 96.8586 96.0281 96.8819 96.0281 96.9055C96.0281 96.929 96.0231 96.9523 96.0134 96.9738C96.0037 96.9953 95.9896 97.0144 95.9719 97.03L90.1303 98.2758C90.0124 98.3012 89.8894 98.2875 89.78 98.2365C89.6707 98.1856 89.581 98.1004 89.5245 97.9937C89.4681 97.8871 89.4481 97.765 89.4675 97.6459C89.4869 97.5268 89.5447 97.4174 89.632 97.3342L93.0371 93.9572C93.0371 93.9572 93.1482 93.9572 93.2032 94.0122Z" fill="white"/>
<path d="M89.9922 98.829C89.8077 98.8267 89.6268 98.7771 89.4668 98.6849C89.3069 98.5928 89.1733 98.4612 89.0787 98.3027C88.9722 98.1019 88.9336 97.872 88.9686 97.6475C89.0036 97.423 89.1103 97.2158 89.2728 97.0569L92.6498 93.6518C92.7716 93.543 92.9293 93.4828 93.0926 93.4828C93.256 93.4828 93.4136 93.543 93.5354 93.6518L96.3041 96.4205C96.4681 96.5762 96.5325 96.8119 96.4702 97.0299C96.4079 97.2479 96.2252 97.4213 95.9999 97.4732L90.1583 98.719L89.9922 98.829ZM93.0931 94.6214L89.9652 97.7493L95.1424 96.6416L93.0931 94.6214Z" fill="#FF6C37"/>
<path d="M118.507 76.1002C116.503 74.1672 113.355 74.0862 111.254 75.9102C109.153 77.7342 108.794 80.8652 110.43 83.118C112.066 85.3707 115.15 86.0019 117.538 84.5714L113.773 80.806L118.507 76.1002Z" fill="white"/>
<path d="M114.769 85.8439C113.618 85.8291 112.497 85.4759 111.545 84.8283C110.593 84.1808 109.853 83.2674 109.417 82.2021C108.981 81.1376 108.866 79.9686 109.088 78.8397C109.309 77.7108 109.857 76.6717 110.663 75.8507C111.771 74.7627 113.262 74.1532 114.815 74.1532C116.368 74.1532 117.859 74.7627 118.968 75.8507C119.074 75.94 119.134 76.0719 119.134 76.211C119.134 76.2794 119.119 76.347 119.09 76.4092C119.061 76.4713 119.02 76.5266 118.968 76.5712L114.483 80.8068L117.888 84.1569C117.943 84.2096 117.985 84.275 118.009 84.3473C118.033 84.4197 118.039 84.4969 118.026 84.5721C118.018 84.6447 117.994 84.7146 117.956 84.7769C117.917 84.8391 117.866 84.8922 117.805 84.9324C116.89 85.5042 115.839 85.8197 114.76 85.8459L114.769 85.8439ZM114.769 75.1022C112.797 75.1126 111.032 76.2992 110.292 78.1128C109.552 79.9265 109.955 82.0142 111.337 83.4073C112.025 84.0991 112.906 84.5671 113.864 84.7499C114.822 84.9328 115.813 84.8219 116.708 84.432L113.441 81.165C113.389 81.1234 113.347 81.0708 113.318 81.0108C113.289 80.9509 113.274 80.8853 113.274 80.8188C113.274 80.7523 113.289 80.6866 113.318 80.6267C113.347 80.5667 113.389 80.5141 113.441 80.4725L117.759 76.1259C116.901 75.4679 115.851 75.1082 114.769 75.1012V75.1022Z" fill="#FF6C37"/>
<path d="M118.59 76.1831L113.856 80.889L117.621 84.6543C118 84.4367 118.353 84.1765 118.673 83.8788C119.66 82.8357 120.203 81.45 120.187 80.0142C120.172 78.5783 119.599 77.2046 118.59 76.1831V76.1831Z" fill="white"/>
<path d="M117.537 85.0696C117.475 85.0729 117.413 85.0623 117.355 85.0384C117.298 85.0145 117.246 84.978 117.205 84.9315L113.44 81.1662C113.388 81.1246 113.346 81.072 113.317 81.012C113.288 80.9521 113.273 80.8865 113.273 80.82C113.273 80.7535 113.288 80.6878 113.317 80.6279C113.346 80.5679 113.388 80.5153 113.44 80.4737L118.145 75.8509C118.191 75.7824 118.253 75.7262 118.325 75.6873C118.398 75.6484 118.478 75.6281 118.561 75.6281C118.643 75.6281 118.724 75.6484 118.796 75.6873C118.869 75.7262 118.931 75.7824 118.976 75.8509C119.528 76.3922 119.967 77.0383 120.267 77.7513C120.567 78.4644 120.721 79.23 120.721 80.0035C120.721 80.7769 120.567 81.5426 120.267 82.2556C119.967 82.9686 119.528 83.6147 118.976 84.156C118.65 84.5017 118.277 84.7998 117.868 85.0415C117.765 85.0934 117.646 85.1035 117.536 85.0696H117.537ZM114.492 80.807L117.62 83.9349C117.835 83.7841 118.039 83.6175 118.23 83.4366C119.149 82.5196 119.667 81.2751 119.669 79.9765C119.672 78.8143 119.248 77.6916 118.479 76.8205L114.492 80.807Z" fill="#FF6C37"/>
<path d="M111.641 84.4612C111.266 84.1091 110.771 83.9131 110.256 83.9131C109.742 83.9131 109.247 84.1091 108.872 84.4612L96.3322 96.9728L98.4084 99.0771L111.669 87.45C111.871 87.2562 112.031 87.023 112.14 86.7649C112.249 86.5068 112.303 86.2291 112.301 85.949C112.298 85.6689 112.238 85.3923 112.125 85.1363C112.011 84.8802 111.846 84.6501 111.641 84.4602V84.4612Z" fill="white"/>
<path d="M98.2974 99.5764C98.1733 99.5734 98.0548 99.5242 97.9652 99.4384L95.8609 97.3341C95.7711 97.2412 95.7209 97.117 95.7209 96.9879C95.7209 96.8587 95.7711 96.7345 95.8609 96.6416L108.402 84.156C108.763 83.7952 109.224 83.5513 109.726 83.4558C110.227 83.3604 110.746 83.4178 111.214 83.6206C111.683 83.8235 112.079 84.1624 112.353 84.5935C112.626 85.0246 112.764 85.5278 112.748 86.0381C112.734 86.3845 112.65 86.7245 112.503 87.0382C112.356 87.3519 112.147 87.6331 111.89 87.8652L98.6296 99.4923C98.5331 99.5606 98.4146 99.5902 98.2974 99.5754V99.5764ZM96.8305 96.9728L98.2143 98.3847L111.225 87.0617C111.547 86.7814 111.739 86.3807 111.752 85.954C111.764 85.5274 111.596 85.11 111.281 84.8193C110.991 84.5301 110.598 84.3677 110.188 84.3677C109.778 84.3677 109.384 84.5301 109.094 84.8193L96.8305 96.9728Z" fill="#FF6C37"/>
<path d="M86.6152 111.23C86.5798 111.279 86.5607 111.337 86.5607 111.397C86.5607 111.456 86.5798 111.515 86.6152 111.563L87.1685 113.971C87.1907 114.113 87.1697 114.258 87.1082 114.388C87.0467 114.517 86.9476 114.625 86.8239 114.698C86.7005 114.77 86.5575 114.801 86.4153 114.787C86.2731 114.772 86.1392 114.713 86.0328 114.618L82.2405 110.964L94.0617 99.049H98.1592L100.928 101.818C96.609 105.594 91.7934 108.761 86.6152 111.23V111.23Z" fill="white"/>
<path d="M86.3661 115.3C86.0525 115.294 85.7432 115.165 85.5356 114.94L81.9093 111.314C81.8574 111.272 81.8155 111.219 81.7867 111.159C81.7579 111.1 81.7429 111.034 81.7429 110.967C81.7429 110.901 81.7579 110.835 81.7867 110.775C81.8155 110.715 81.8574 110.663 81.9093 110.621L93.8126 98.6899C93.8793 98.619 93.9664 98.5708 94.0618 98.5518H98.1863C98.2937 98.5138 98.411 98.5138 98.5185 98.5518L101.287 101.321C101.34 101.369 101.38 101.43 101.404 101.497C101.428 101.565 101.435 101.637 101.425 101.708C101.427 101.777 101.413 101.845 101.384 101.907C101.356 101.97 101.313 102.025 101.259 102.068L101.038 102.262C96.7017 105.877 91.9308 108.937 86.8363 111.37L87.3627 113.612C87.4034 113.785 87.4049 113.965 87.3672 114.139C87.3295 114.312 87.2536 114.475 87.1448 114.616C87.0361 114.756 86.8974 114.871 86.7388 114.951C86.5801 115.031 86.4056 115.075 86.228 115.079L86.3661 115.3ZM82.989 110.953L86.255 114.247C86.2854 114.275 86.3248 114.29 86.3655 114.29C86.4063 114.29 86.4457 114.275 86.4761 114.247C86.4965 114.219 86.5074 114.185 86.5074 114.15C86.5074 114.115 86.4965 114.082 86.4761 114.053L85.9228 111.645C85.8792 111.472 85.8967 111.289 85.9724 111.128C86.0481 110.967 86.1773 110.836 86.338 110.759C91.2956 108.359 95.9434 105.365 100.179 101.845L97.9091 99.5744H94.1998L82.989 110.953Z" fill="#FF6C37"/>
<path d="M79.3898 113.805L82.1585 111.036L86.4221 115.3L79.6399 114.83C79.5235 114.82 79.4129 114.775 79.324 114.699C79.235 114.623 79.1723 114.522 79.1446 114.408C79.117 114.295 79.1259 114.175 79.1701 114.067C79.2143 113.959 79.2916 113.868 79.3908 113.806L79.3898 113.805Z" fill="white"/>
<path d="M86.5041 115.715L79.749 115.245C79.3483 115.208 79.0036 114.934 78.8624 114.567C78.7212 114.201 78.8074 113.766 79.0846 113.473L81.8533 110.704C81.9462 110.614 82.0703 110.564 82.1995 110.564C82.3287 110.564 82.4528 110.614 82.5457 110.704L86.7813 114.94C86.8399 115.02 86.8715 115.117 86.8715 115.216C86.8715 115.316 86.8399 115.413 86.7813 115.493C86.7173 115.597 86.6193 115.675 86.5041 115.714V115.715ZM79.749 114.165L85.2853 114.526L82.2405 111.674L79.749 114.165Z" fill="#FF6C37"/>
<path d="M98.5464 99.3834L92.954 100.242L96.193 97.031L98.5464 99.3834Z" fill="white"/>
<path d="M92.9541 100.766C92.8611 100.769 92.7695 100.744 92.6907 100.694C92.6119 100.645 92.5493 100.574 92.5108 100.489C92.4518 100.409 92.42 100.312 92.42 100.212C92.42 100.113 92.4518 100.016 92.5108 99.9356L95.7217 96.6966C95.8191 96.605 95.9477 96.5541 96.0814 96.5541C96.2151 96.5541 96.3437 96.605 96.4411 96.6966L98.7956 99.049C98.8426 99.1236 98.8676 99.21 98.8676 99.2982C98.8676 99.3863 98.8426 99.4727 98.7956 99.5473C98.7725 99.6382 98.7237 99.7206 98.655 99.7845C98.5863 99.8483 98.5007 99.8911 98.4084 99.9076L92.872 100.766H92.9541ZM96.193 97.7482L94.3939 99.5473L97.4948 99.077L96.193 97.7482Z" fill="#FF6C37"/>
<path d="M98.5464 99.3813L94.6431 99.8796C94.5386 99.9033 94.4293 99.8928 94.3313 99.8495C94.2334 99.8061 94.152 99.7324 94.0992 99.6392C94.0464 99.546 94.0251 99.4383 94.0383 99.332C94.0516 99.2257 94.0987 99.1265 94.1728 99.0491L96.194 97.0278L98.5464 99.3813Z" fill="white"/>
<path d="M94.532 100.407C94.3511 100.405 94.1739 100.356 94.0183 100.263C93.8628 100.171 93.7345 100.039 93.6465 99.8806C93.5408 99.6911 93.4998 99.4722 93.5298 99.2573C93.5598 99.0424 93.6591 98.8431 93.8126 98.6898L95.8339 96.6686C95.9313 96.577 96.0599 96.5261 96.1936 96.5261C96.3272 96.5261 96.4559 96.577 96.5533 96.6686L98.9067 99.022C98.9767 99.0883 99.026 99.1735 99.0485 99.2673C99.0711 99.361 99.0659 99.4593 99.0337 99.5501C99.0015 99.641 98.9436 99.7206 98.8671 99.7793C98.7906 99.8379 98.6987 99.8731 98.6026 99.8806L94.7272 100.379L94.532 100.407ZM94.532 99.3822L97.4669 99.022L96.1661 97.7212L94.5051 99.3822H94.532ZM118.617 79.3669C118.565 79.2796 118.482 79.2144 118.385 79.1838C118.288 79.1532 118.183 79.1592 118.09 79.2008C118.045 79.2241 118.004 79.2562 117.971 79.2955C117.938 79.3347 117.913 79.3802 117.897 79.4292C117.867 79.5282 117.876 79.6354 117.924 79.7272C118.118 80.1352 118.064 80.6179 117.786 80.9729C117.752 81.0071 117.725 81.0482 117.707 81.0934C117.689 81.1386 117.681 81.187 117.682 81.2356C117.683 81.333 117.72 81.4265 117.786 81.4982C117.857 81.5263 117.936 81.5263 118.007 81.4982C118.072 81.5145 118.14 81.5127 118.203 81.4931C118.267 81.4735 118.323 81.4369 118.368 81.3872C118.596 81.1081 118.74 80.7702 118.784 80.4125C118.828 80.0549 118.77 79.692 118.617 79.3659V79.3669Z" fill="#FF6C37"/>
<defs>
<filter id="filter0_d_252_171" x="0" y="0" width="200" height="200" filterUnits="userSpaceOnUse" color-interpolation-filters="sRGB">
<feFlood flood-opacity="0" result="BackgroundImageFix"/>
<feColorMatrix in="SourceAlpha" type="matrix" values="0 0 0 0 0 0 0 0 0 0 0 0 0 0 0 0 0 0 127 0" result="hardAlpha"/>
<feOffset dy="4"/>
<feGaussianBlur stdDeviation="20"/>
<feComposite in2="hardAlpha" operator="out"/>
<feColorMatrix type="matrix" values="0 0 0 0 0.0367917 0 0 0 0 0.0348958 0 0 0 0 0.0484375 0 0 0 0.1 0"/>
<feBlend mode="normal" in2="BackgroundImageFix" result="effect1_dropShadow_252_171"/>
<feBlend mode="normal" in="SourceGraphic" in2="effect1_dropShadow_252_171" result="shape"/>
</filter>
</defs>
</svg>
