<svg width="200" height="200" viewBox="0 0 200 200" fill="none" xmlns="http://www.w3.org/2000/svg">
<g filter="url(#filter0_d_252_161)">
<rect x="40" y="36" width="120" height="120" rx="8" fill="white"/>
<rect x="40.5" y="36.5" width="119" height="119" rx="7.5" stroke="#D9D9D9"/>
</g>
<path d="M124.692 99.743C122.355 99.7552 120.323 100.315 118.622 101.144C117.998 99.9135 117.374 98.8175 117.264 98.0138C117.142 97.0761 116.995 96.5037 117.142 95.3834C117.288 94.263 117.949 92.6677 117.937 92.5459C117.925 92.4241 117.79 91.8518 116.444 91.8396C115.098 91.8274 113.935 92.0953 113.801 92.4485C113.666 92.8016 113.409 93.6054 113.238 94.4335C113.005 95.6513 110.545 99.9988 109.138 102.276C108.685 101.387 108.294 100.608 108.208 99.9866C108.086 99.0489 107.939 98.4765 108.086 97.3562C108.232 96.2358 108.893 94.6405 108.881 94.5187C108.869 94.397 108.734 93.8246 107.388 93.8124C106.042 93.8002 104.879 94.0681 104.745 94.4213C104.61 94.7745 104.463 95.6026 104.182 96.4063C103.9 97.21 100.633 104.468 99.7761 106.343C99.3355 107.306 98.9561 108.073 98.6869 108.596C98.6869 108.596 98.6747 108.633 98.6379 108.694C98.4054 109.144 98.2708 109.388 98.2708 109.388C98.2708 109.388 98.2708 109.388 98.2708 109.4C98.0872 109.729 97.8914 110.033 97.7935 110.033C97.7201 110.033 97.5855 109.157 97.818 107.963C98.3075 105.442 99.4701 101.521 99.4579 101.387C99.4579 101.314 99.6782 100.632 98.6991 100.279C97.7446 99.9257 97.4019 100.51 97.3163 100.51C97.2306 100.51 97.1694 100.717 97.1694 100.717C97.1694 100.717 98.2341 96.3089 95.1379 96.3089C93.2044 96.3089 90.5365 98.4157 89.2148 100.315C88.3827 100.766 86.6082 101.728 84.7113 102.763C83.9893 103.165 83.2428 103.567 82.5452 103.944C82.4963 103.896 82.4473 103.835 82.3984 103.786C78.6536 99.8039 71.727 96.9908 72.0207 91.6447C72.1309 89.6963 72.8039 84.5816 85.3232 78.3708C95.6274 73.317 103.827 74.7175 105.246 77.8228C107.278 82.2556 100.853 90.4878 90.2061 91.6813C86.1431 92.1319 84.0138 90.5731 83.4753 89.9886C82.9124 89.3797 82.8267 89.3431 82.6187 89.4649C82.276 89.6476 82.4963 90.1956 82.6187 90.5122C82.9368 91.3403 84.2463 92.8016 86.4613 93.5201C88.4194 94.1534 93.1799 94.5066 98.9439 92.2902C105.393 89.8059 110.435 82.901 108.954 77.1165C107.474 71.2468 97.6834 69.3105 88.4194 72.5863C82.9124 74.5348 76.9403 77.6036 72.6448 81.598C67.5417 86.3474 66.734 90.4757 67.0644 92.2049C68.2515 98.3426 76.7567 102.337 80.1589 105.296C79.9875 105.394 79.8284 105.479 79.6938 105.552C77.9928 106.392 71.5067 109.765 69.8913 113.334C68.0557 117.377 70.185 120.275 71.5924 120.665C75.9613 121.87 80.4526 119.703 82.8634 116.122C85.2743 112.542 84.9806 107.89 83.8669 105.759C83.8547 105.735 83.8424 105.71 83.818 105.686C84.2585 105.43 84.7113 105.162 85.1519 104.906C86.0208 104.395 86.8774 103.92 87.6117 103.53C87.1956 104.663 86.8896 106.015 86.7428 107.963C86.5592 110.253 87.5015 113.224 88.7376 114.393C89.2883 114.905 89.9369 114.917 90.3529 114.917C91.797 114.917 92.4456 113.723 93.1676 112.311C94.0488 110.581 94.8442 108.572 94.8442 108.572C94.8442 108.572 93.853 114.003 96.5453 114.003C97.5243 114.003 98.5156 112.737 98.9561 112.091C98.9561 112.104 98.9561 112.104 98.9561 112.104C98.9561 112.104 98.9806 112.067 99.0296 111.982C99.1275 111.824 99.1886 111.726 99.1886 111.726C99.1886 111.726 99.1886 111.714 99.1886 111.702C99.5803 111.02 100.461 109.473 101.771 106.904C103.46 103.591 105.087 99.4508 105.087 99.4508C105.087 99.4508 105.234 100.462 105.736 102.142C106.03 103.129 106.641 104.212 107.131 105.26C106.739 105.808 106.495 106.112 106.495 106.112C106.495 106.112 106.495 106.112 106.507 106.124C106.189 106.538 105.846 106.989 105.467 107.427C104.133 109.01 102.542 110.825 102.322 111.349C102.065 111.97 102.126 112.42 102.615 112.786C102.97 113.053 103.606 113.09 104.255 113.053C105.454 112.968 106.299 112.676 106.715 112.493C107.364 112.262 108.122 111.909 108.832 111.385C110.141 110.423 110.937 109.047 110.864 107.232C110.827 106.234 110.496 105.235 110.093 104.298C110.215 104.127 110.325 103.957 110.447 103.786C112.516 100.778 114.119 97.478 114.119 97.478C114.119 97.478 114.266 98.4887 114.767 100.169C115.012 101.022 115.514 101.947 115.954 102.848C114.009 104.419 112.809 106.246 112.381 107.439C111.61 109.656 112.21 110.654 113.348 110.886C113.862 110.995 114.596 110.752 115.135 110.52C115.82 110.301 116.628 109.924 117.399 109.364C118.708 108.402 119.968 107.062 119.895 105.247C119.858 104.419 119.638 103.603 119.332 102.812C120.984 102.13 123.114 101.752 125.83 102.069C131.656 102.751 132.806 106.368 132.586 107.89C132.365 109.412 131.142 110.24 130.738 110.496C130.334 110.752 130.199 110.837 130.236 111.02C130.285 111.288 130.481 111.276 130.823 111.227C131.301 111.142 133.883 109.997 133.993 107.196C134.177 103.616 130.75 99.7065 124.692 99.743ZM79.755 114.819C77.8214 116.914 75.1291 117.705 73.9665 117.036C72.7183 116.317 73.2078 113.224 75.5819 111.008C77.026 109.656 78.8861 108.402 80.1221 107.634C80.4036 107.464 80.8197 107.22 81.3214 106.916C81.4071 106.867 81.4561 106.843 81.4561 106.843C81.554 106.782 81.6519 106.721 81.7498 106.66C82.6187 109.826 81.7865 112.615 79.755 114.819ZM93.8285 105.296C93.1554 106.928 91.7481 111.105 90.8914 110.874C90.1571 110.679 89.7043 107.513 90.7446 104.383C91.2708 102.812 92.3844 100.936 93.033 100.206C94.0855 99.0367 95.2481 98.647 95.5295 99.122C95.8844 99.743 94.2446 104.273 93.8285 105.296ZM105.442 110.825C105.161 110.971 104.891 111.068 104.769 110.995C104.683 110.947 104.891 110.752 104.891 110.752C104.891 110.752 106.348 109.193 106.923 108.487C107.253 108.073 107.645 107.586 108.061 107.038C108.061 107.086 108.061 107.147 108.061 107.196C108.061 109.059 106.25 110.313 105.442 110.825ZM114.4 108.791C114.192 108.645 114.229 108.158 114.926 106.636C115.196 106.039 115.832 105.04 116.921 104.078C117.044 104.468 117.129 104.846 117.117 105.199C117.105 107.549 115.416 108.426 114.4 108.791Z" fill="#CD6799"/>
<defs>
<filter id="filter0_d_252_161" x="0" y="0" width="200" height="200" filterUnits="userSpaceOnUse" color-interpolation-filters="sRGB">
<feFlood flood-opacity="0" result="BackgroundImageFix"/>
<feColorMatrix in="SourceAlpha" type="matrix" values="0 0 0 0 0 0 0 0 0 0 0 0 0 0 0 0 0 0 127 0" result="hardAlpha"/>
<feOffset dy="4"/>
<feGaussianBlur stdDeviation="20"/>
<feComposite in2="hardAlpha" operator="out"/>
<feColorMatrix type="matrix" values="0 0 0 0 0.0367917 0 0 0 0 0.0348958 0 0 0 0 0.0484375 0 0 0 0.1 0"/>
<feBlend mode="normal" in2="BackgroundImageFix" result="effect1_dropShadow_252_161"/>
<feBlend mode="normal" in="SourceGraphic" in2="effect1_dropShadow_252_161" result="shape"/>
</filter>
</defs>
</svg>
