<svg width="200" height="200" viewBox="0 0 200 200" fill="none" xmlns="http://www.w3.org/2000/svg">
<g filter="url(#filter0_d_252_172)">
<rect x="40" y="36" width="120" height="120" rx="8" fill="white"/>
<rect x="40.5" y="36.5" width="119" height="119" rx="7.5" stroke="#D9D9D9"/>
</g>
<path fill-rule="evenodd" clip-rule="evenodd" d="M80.0914 87.3599L99.8543 125.823L66.6365 87.3599H80.0914Z" fill="#EA6C00"/>
<path fill-rule="evenodd" clip-rule="evenodd" d="M119.623 87.3599L99.8599 125.823L133.078 87.3599H119.623Z" fill="#EA6C00"/>
<path fill-rule="evenodd" clip-rule="evenodd" d="M80.0907 87.3599H119.616L99.8535 125.823L80.0907 87.3599Z" fill="#FDAD00"/>
<path fill-rule="evenodd" clip-rule="evenodd" d="M99.8535 66.0435L81.1309 68.0114L80.0907 87.3598L99.8535 66.0435Z" fill="#FDD231"/>
<path fill-rule="evenodd" clip-rule="evenodd" d="M99.8536 66.0435L118.576 68.0114L119.616 87.3598L99.8536 66.0435Z" fill="#FDD231"/>
<path fill-rule="evenodd" clip-rule="evenodd" d="M133.078 87.3598L118.583 68.0114L119.623 87.3598H133.078Z" fill="#FDAD00"/>
<path fill-rule="evenodd" clip-rule="evenodd" d="M66.6365 87.3598L81.1316 68.0114L80.0914 87.3598H66.6365Z" fill="#FDAD00"/>
<path fill-rule="evenodd" clip-rule="evenodd" d="M99.8535 66.0435L80.0907 87.3598H119.616L99.8535 66.0435Z" fill="#FEEEB7"/>
<defs>
<filter id="filter0_d_252_172" x="0" y="0" width="200" height="200" filterUnits="userSpaceOnUse" color-interpolation-filters="sRGB">
<feFlood flood-opacity="0" result="BackgroundImageFix"/>
<feColorMatrix in="SourceAlpha" type="matrix" values="0 0 0 0 0 0 0 0 0 0 0 0 0 0 0 0 0 0 127 0" result="hardAlpha"/>
<feOffset dy="4"/>
<feGaussianBlur stdDeviation="20"/>
<feComposite in2="hardAlpha" operator="out"/>
<feColorMatrix type="matrix" values="0 0 0 0 0.0367917 0 0 0 0 0.0348958 0 0 0 0 0.0484375 0 0 0 0.1 0"/>
<feBlend mode="normal" in2="BackgroundImageFix" result="effect1_dropShadow_252_172"/>
<feBlend mode="normal" in="SourceGraphic" in2="effect1_dropShadow_252_172" result="shape"/>
</filter>
</defs>
</svg>
