<svg width="70" height="70" viewBox="0 0 70 70" fill="none" xmlns="http://www.w3.org/2000/svg">
<g clip-path="url(#clip0_2_99)">
<path d="M29.9512 10.4883C20.2441 12.3828 12.4219 20.1856 10.5078 29.8633C6.89453 48.125 23.3691 61.7383 35.7813 59.8145C39.8047 59.1895 41.7773 54.4824 39.9316 50.8594C37.6758 46.4258 40.8984 41.25 45.8789 41.25H53.6621C57.1582 41.25 59.9902 38.3594 60 34.8731C59.9512 19.4824 45.9473 7.37305 29.9512 10.4883ZM19.375 41.25C17.6465 41.25 16.25 39.8535 16.25 38.125C16.25 36.3965 17.6465 35 19.375 35C21.1035 35 22.5 36.3965 22.5 38.125C22.5 39.8535 21.1035 41.25 19.375 41.25ZM22.5 28.75C20.7715 28.75 19.375 27.3535 19.375 25.625C19.375 23.8965 20.7715 22.5 22.5 22.5C24.2285 22.5 25.625 23.8965 25.625 25.625C25.625 27.3535 24.2285 28.75 22.5 28.75ZM35 22.5C33.2715 22.5 31.875 21.1035 31.875 19.375C31.875 17.6465 33.2715 16.25 35 16.25C36.7285 16.25 38.125 17.6465 38.125 19.375C38.125 21.1035 36.7285 22.5 35 22.5ZM47.5 28.75C45.7715 28.75 44.375 27.3535 44.375 25.625C44.375 23.8965 45.7715 22.5 47.5 22.5C49.2285 22.5 50.625 23.8965 50.625 25.625C50.625 27.3535 49.2285 28.75 47.5 28.75Z" fill="white"/>
</g>
<rect x="1" y="1" width="68" height="68" stroke="white" stroke-width="2"/>
<defs>
<clipPath id="clip0_2_99">
<rect width="50" height="50" fill="white" transform="translate(10 10)"/>
</clipPath>
</defs>
</svg>
