<svg width="90" height="90" viewBox="0 0 90 90" fill="none" xmlns="http://www.w3.org/2000/svg">
<path d="M67.2781 36.105C67.0831 40.1405 64.1037 45.6665 58.3412 52.68C52.3833 60.0063 47.3425 63.6691 43.2189 63.6691C40.6654 63.6691 38.5029 61.4388 36.7377 56.9767C35.5581 52.8865 34.3797 48.7967 33.2005 44.7066C31.8889 40.2469 30.4827 38.0141 28.9792 38.0141C28.6514 38.0141 27.5041 38.6667 25.5401 39.9667L23.4783 37.4539C25.6409 35.656 27.7745 33.8586 29.8736 32.0587C32.7579 29.7005 34.9231 28.4605 36.3661 28.3351C39.7767 28.0252 41.8758 30.2306 42.6637 34.9518C43.5151 40.0454 44.1041 43.2136 44.4354 44.4537C45.4183 48.6796 46.4998 50.7899 47.6817 50.7899C48.5989 50.7899 49.9766 49.4195 51.8136 46.6786C53.6488 43.9369 54.6317 41.8511 54.7645 40.4182C55.0257 38.0522 54.0423 36.8663 51.8136 36.8663C50.7645 36.8663 49.683 37.0947 48.5704 37.5462C50.7238 30.8724 54.8386 27.6312 60.9122 27.8162C65.4149 27.9412 67.5376 30.7039 67.2781 36.105Z" fill="white"/>
</svg>
