<svg width="200" height="200" viewBox="0 0 200 200" fill="none" xmlns="http://www.w3.org/2000/svg">
<g filter="url(#filter0_d_252_170)">
<rect x="40" y="36" width="120" height="120" rx="8" fill="white"/>
<rect x="40.5" y="36.5" width="119" height="119" rx="7.5" stroke="#D9D9D9"/>
</g>
<path d="M66.9801 86.2203C66.9801 86.2203 65.3564 85.0499 67.3049 83.487L71.8446 79.4276C71.8446 79.4276 73.1436 78.0609 74.517 79.2517L116.41 110.969V126.178C116.41 126.178 116.39 128.566 113.325 128.303L66.9801 86.2203Z" fill="#2489CA"/>
<path d="M77.7781 96.0237L66.9801 105.841C66.9801 105.841 65.8706 106.666 66.9801 108.141L71.9935 112.701C71.9935 112.701 73.1842 113.98 74.9433 112.525L86.3907 103.845L77.7781 96.0237Z" fill="#1070B3"/>
<path d="M96.7354 96.1049L116.538 80.9837L116.41 65.8557C116.41 65.8557 115.564 62.554 112.743 64.2725L86.3908 88.2568L96.7354 96.1049Z" fill="#0877B9"/>
<path d="M113.325 128.323C114.475 129.5 115.869 129.114 115.869 129.114L131.301 121.51C133.277 120.163 132.999 118.492 132.999 118.492V73.0813C132.999 71.0855 130.956 70.3954 130.956 70.3954L117.58 63.9477C114.658 62.1413 112.743 64.2725 112.743 64.2725C112.743 64.2725 115.206 62.4999 116.41 65.8556V125.901C116.41 126.313 116.322 126.719 116.146 127.085C115.794 127.795 115.03 128.458 113.196 128.181L113.325 128.323Z" fill="#3C99D4"/>
<defs>
<filter id="filter0_d_252_170" x="0" y="0" width="200" height="200" filterUnits="userSpaceOnUse" color-interpolation-filters="sRGB">
<feFlood flood-opacity="0" result="BackgroundImageFix"/>
<feColorMatrix in="SourceAlpha" type="matrix" values="0 0 0 0 0 0 0 0 0 0 0 0 0 0 0 0 0 0 127 0" result="hardAlpha"/>
<feOffset dy="4"/>
<feGaussianBlur stdDeviation="20"/>
<feComposite in2="hardAlpha" operator="out"/>
<feColorMatrix type="matrix" values="0 0 0 0 0.0367917 0 0 0 0 0.0348958 0 0 0 0 0.0484375 0 0 0 0.1 0"/>
<feBlend mode="normal" in2="BackgroundImageFix" result="effect1_dropShadow_252_170"/>
<feBlend mode="normal" in="SourceGraphic" in2="effect1_dropShadow_252_170" result="shape"/>
</filter>
</defs>
</svg>
