<svg width="200" height="200" viewBox="0 0 200 200" fill="none" xmlns="http://www.w3.org/2000/svg">
<g filter="url(#filter0_d_252_168)">
<rect x="40" y="36" width="120" height="120" rx="8" fill="white"/>
<rect x="40.5" y="36.5" width="119" height="119" rx="7.5" stroke="#D9D9D9"/>
</g>
<path d="M69.514 66.0072H130.625V125.452H69.514V66.0072Z" fill="#2E001E"/>
<path d="M66.7362 63.2295V128.229H133.403V63.2295H66.7362ZM69.514 66.0073H130.625V125.452H69.514V66.0073Z" fill="#FF2BC2"/>
<path d="M115.153 90.535C114.736 90.3405 114.208 90.2572 113.542 90.2572C110.042 90.2572 107.708 92.9516 107.708 97.4238C107.708 102.535 110.097 104.59 113.208 104.59C113.875 104.59 114.597 104.507 115.125 104.285V90.535H115.153ZM102.708 97.6461C102.708 91.1739 106.875 86.1183 113.708 86.1183C114.292 86.1183 114.597 86.1183 115.153 86.1739V78.9517C115.153 78.785 115.292 78.6739 115.431 78.6739H119.903C120.125 78.6739 120.181 78.7572 120.181 78.8961V104.285C120.181 105.035 120.181 105.979 120.32 107.007C120.32 107.202 120.32 107.229 120.153 107.313C117.82 108.424 115.375 108.924 113.042 108.924C107.014 108.924 102.708 105.202 102.708 97.6461V97.6461ZM93.2362 93.1461L101.014 108.229C101.153 108.452 101.07 108.674 100.847 108.674H96.014C95.7085 108.674 95.5696 108.59 95.4307 108.313C93.6529 104.646 91.8474 100.841 89.9862 96.8961H89.9307C88.264 100.618 86.4307 104.674 84.6529 108.34C84.514 108.563 84.3751 108.646 84.1529 108.646H79.5418C79.264 108.646 79.2363 108.424 79.3751 108.257L86.9862 93.6183L79.6251 79.0628C79.4585 78.8406 79.6251 78.6461 79.8196 78.6461H84.5974C84.8751 78.6461 85.014 78.7017 85.0974 78.9517C86.8474 82.6461 88.6251 86.285 90.2918 90.0072H90.3474C91.9585 86.3405 93.7362 82.6461 95.4307 79.0072C95.5696 78.785 95.6529 78.6461 95.9307 78.6461H100.403C100.625 78.6461 100.708 78.8128 100.57 79.0628L93.2362 93.1461V93.1461Z" fill="#FF2BC2"/>
<defs>
<filter id="filter0_d_252_168" x="0" y="0" width="200" height="200" filterUnits="userSpaceOnUse" color-interpolation-filters="sRGB">
<feFlood flood-opacity="0" result="BackgroundImageFix"/>
<feColorMatrix in="SourceAlpha" type="matrix" values="0 0 0 0 0 0 0 0 0 0 0 0 0 0 0 0 0 0 127 0" result="hardAlpha"/>
<feOffset dy="4"/>
<feGaussianBlur stdDeviation="20"/>
<feComposite in2="hardAlpha" operator="out"/>
<feColorMatrix type="matrix" values="0 0 0 0 0.0367917 0 0 0 0 0.0348958 0 0 0 0 0.0484375 0 0 0 0.1 0"/>
<feBlend mode="normal" in2="BackgroundImageFix" result="effect1_dropShadow_252_168"/>
<feBlend mode="normal" in="SourceGraphic" in2="effect1_dropShadow_252_168" result="shape"/>
</filter>
</defs>
</svg>
