<svg width="70" height="70" viewBox="0 0 70 70" fill="none" xmlns="http://www.w3.org/2000/svg">
<rect width="70" height="70" fill="white"/>
<path d="M35 10C30.0555 10 25.222 11.4662 21.1108 14.2133C16.9995 16.9603 13.7952 20.8648 11.903 25.4329C10.0108 30.0011 9.51575 35.0277 10.4804 39.8773C11.445 44.7268 13.826 49.1814 17.3223 52.6777C20.8187 56.174 25.2732 58.555 30.1227 59.5196C34.9723 60.4842 39.9989 59.9892 44.5671 58.097C49.1352 56.2048 53.0397 53.0005 55.7867 48.8892C58.5338 44.778 60 39.9445 60 35C59.9873 28.3735 57.3493 22.022 52.6636 17.3364C47.978 12.6507 41.6265 10.0127 35 10ZM43.75 36.6106L32.2115 44.3029C31.8933 44.4998 31.528 44.6077 31.1539 44.6154C30.8367 44.6151 30.524 44.5411 30.2404 44.399C29.9329 44.2331 29.6765 43.9865 29.4986 43.6858C29.3208 43.3851 29.2282 43.0417 29.2308 42.6923V27.3077C29.2282 26.9583 29.3208 26.6149 29.4986 26.3142C29.6765 26.0135 29.9329 25.7669 30.2404 25.601C30.5491 25.4447 30.8931 25.3714 31.2387 25.3883C31.5843 25.4051 31.9195 25.5115 32.2115 25.6971L43.75 33.3894C44.0178 33.5642 44.2379 33.803 44.3902 34.0842C44.5425 34.3654 44.6222 34.6802 44.6222 35C44.6222 35.3198 44.5425 35.6346 44.3902 35.9158C44.2379 36.197 44.0178 36.4358 43.75 36.6106Z" fill="#C1C1DB"/>
</svg>
